# xmcd
#
# Track frame offsets: 
#        150
#        16438
#        29765
#        50183
#        66573
#        82381
#        96739
#        112648
#        128505
#        141350
#        156969
#        170084
#        187791
#        205310
#        217918
#        236631
#        253524
#        274943
#        288582
#        302532
#        318408
#        336414
#
# Disc length: 4671 seconds
#
# Revision: 0
# Processed by: cddbd v1.5.2PL0 Copyright (c) Steve Scherf et al.
# Submitted via: ExactAudioCopy v0.99pb4
#
DISCID=5a123d16
DTITLE=Various Artist - Schlagerfestival 2016 - CD 2
DYEAR=2016
DGENRE=Chanson
TTITLE0=Helene Fischer - Atemlos Durch Die Nacht
TTITLE1=Belle Perez - Enamorada
TTITLE2=Rob De Nijs - Malle Babbe
TTITLE3=Matthias Reim - Verdammt Ich Lieb' Dich
TTITLE4=Christoff - Zeven Zonden
TTITLE5=Jody Bernal - Que Si, Que No
TTITLE6=Laura Lynn and Frans Bauer - Kom Dans Met Mij
TTITLE7=Hansi Hinterseer - Du Bist Mein Leben
TTITLE8=Jan Smit - Vrienden Voor Het Leven
TTITLE9=Anita Meyer - Why Tell Me Why
TTITLE10=Dana Winner - Op Het Dak Van De Wereld
TTITLE11=Willy Sommers - Als Een Leeuw In Een Kooi
TTITLE12=René Froger and Het Goede Doel - Alles Kan Een Mens Gelukkig Ma
TTITLE12=ken
TTITLE13=Freddy Breck - Rote Rosen
TTITLE14=Bart Kaëll - Zeil Je Voor Het Eerst
TTITLE15=Benny Neyman - Vrijgezel
TTITLE16=V.O.F. De Kunst - Suzanne
TTITLE17=Yves Segers - Een Beetje Gay (Dat Is Okay)
TTITLE18=De Romeo's - We Gaan Weer Feesten
TTITLE19=Peter Wackel Feat. Chriss Tuxi - Joana
TTITLE20=André Hazes - Zij Gelooft In Mij
TTITLE21=Eddy Wally - Ik Spring Uit Een Vliegmachien
EXTD=
EXTT0=
EXTT1=
EXTT2=
EXTT3=
EXTT4=
EXTT5=
EXTT6=
EXTT7=
EXTT8=
EXTT9=
EXTT10=
EXTT11=
EXTT12=
EXTT13=
EXTT14=
EXTT15=
EXTT16=
EXTT17=
EXTT18=
EXTT19=
EXTT20=
EXTT21=
PLAYORDER=
